Patient4_TMGait_0pt2_03_right_11_GRF.mot
version=1
nRows=45
nColumns=19
inDegrees=no
endheader
time	F1x	F1y	F1z	M1x	M1y	M1z	F2x	F2y	F2z	M2x	M2y	M2z	EC1x	EC1y	EC1z	EC2x	EC2y	EC2z
23.52	0.54646	760.5644	45.9464	-281.2766	-42.9791	745.3184	-5.9583	-6.4512	2.3148	-1.5704	-0.36794	-8.1382	-0.0592	0.0182	-0.0073	-0.0462	0.0165	0.9585
23.5421	-0.86702	776.8149	49.4447	-287.0609	-46.7046	760.9655	-4.0362	-3.5138	1.4672	-0.77237	-0.11231	-4.5377	-0.0592	0.0182	-0.0073	-0.0462	0.0165	0.9585
23.5641	-2.5795	796.0278	53.0985	-293.8582	-50.6369	779.3728	-2.411	-0.97039	0.7402	-0.080012	0.1094	-1.4323	-0.0592	0.0182	-0.0073	-0.0462	0.0165	0.9585
23.5862	-4.3726	816.4145	56.5038	-301.0485	-54.3026	798.67	-1.1779	1.019	0.18068	0.46323	0.28185	0.98599	-0.0592	0.0182	-0.0073	-0.0462	0.0165	0.9585
23.6083	-5.9194	835.6621	59.2694	-307.8337	-57.2016	816.4453	-0.33199	2.4305	-0.20707	0.84888	0.40109	2.6974	-0.0592	0.0182	-0.0073	-0.0462	0.0165	0.9585
23.6304	-6.8546	851.3599	61.0944	-313.3774	-58.9102	830.1998	0.1853	3.3062	-0.44502	1.0856	0.47092	3.7612	-0.0592	0.0182	-0.0073	-0.0462	0.0165	0.9585
23.6524	-6.8513	861.4136	61.8306	-316.9442	-59.1725	837.7878	0.45297	3.7031	-0.56584	1.1857	0.49973	4.2547	-0.0592	0.0182	-0.0073	-0.0462	0.0165	0.9585
23.6745	-5.6988	864.3731	61.4864	-318.015	-57.9324	837.7593	0.55016	3.6604	-0.60271	1.1563	0.49704	4.2406	-0.0592	0.0182	-0.0073	-0.0462	0.0165	0.9585
23.6966	-3.3458	859.6847	60.1946	-316.381	-55.3155	829.6077	0.54815	3.1835	-0.5813	0.99314	0.46649	3.7457	-0.0592	0.0182	-0.0073	-0.0462	0.0165	0.9585
23.7186	0.1218	847.817	58.1797	-312.1965	-51.5849	813.8816	0.50764	2.2467	-0.51565	0.68105	0.40303	2.757	-0.0592	0.0182	-0.0073	-0.0462	0.0165	0.9585
23.7407	4.5256	830.2201	55.7278	-305.9687	-47.0926	792.1281	0.47882	0.80821	-0.40803	0.20039	0.29374	1.2328	-0.0592	0.0182	-0.0073	-0.0462	0.0165	0.9585
23.7628	9.6264	809.069	53.1476	-298.4699	-42.2267	766.6225	0.49973	-1.1539	-0.25653	-0.45893	0.12338	-0.84491	-0.0592	0.0182	-0.0073	-0.0462	0.0165	0.9585
23.7849	15.1601	786.8875	50.728	-290.603	-37.3635	739.9725	0.59929	-3.5922	-0.058729	-1.2816	-0.12358	-3.417	-0.0592	0.0182	-0.0073	-0.0462	0.0165	0.9585
23.8069	20.868	766.1213	48.718	-283.2497	-32.8372	714.6959	0.79511	-6.3197	0.18672	-2.2041	-0.45793	-6.2822	-0.0592	0.0182	-0.0073	-0.0462	0.0165	0.9585
23.829	26.5117	748.7124	47.3129	-277.1094	-28.9237	692.8027	1.0876	-8.9158	0.47417	-3.0831	-0.8762	-9.0023	-0.0592	0.0182	-0.0073	-0.0462	0.0165	0.9585
23.8511	31.8738	735.7702	46.642	-272.5733	-25.8259	675.4761	1.4546	-10.629	0.78264	-3.6631	-1.3477	-10.796	-0.0592	0.0182	-0.0073	-0.0462	0.0165	0.9585
23.8731	36.7432	727.3172	46.7687	-269.6313	-23.6834	662.8612	1.8415	-10.2798	1.0649	-3.5455	-1.7985	-10.4338	-0.0592	0.0182	-0.0073	-0.0462	0.0165	0.9585
23.8952	40.9131	722.1609	47.6784	-267.8303	-22.5645	653.9673	2.1524	-6.2052	1.2355	-2.1694	-2.0955	-6.1803	-0.0592	0.0182	-0.0073	-0.0462	0.0165	0.9585
23.9173	44.1947	718.0319	49.2457	-266.3259	-22.4353	646.8064	2.2362	3.7184	1.1622	1.1804	-2.034	4.1778	-0.0592	0.0182	-0.0073	-0.0462	0.0165	0.9585
23.9394	46.3944	711.9295	51.2234	-264.0115	-23.1565	638.7149	1.8736	21.9077	0.65913	7.3182	-1.3263	23.1599	-0.0592	0.0182	-0.0073	-0.0462	0.0165	0.9585
23.9614	47.2852	700.5746	53.2423	-259.6838	-24.4917	626.7714	0.7758	50.6877	-0.51093	17.0266	0.39418	53.1906	-0.0592	0.0182	-0.0073	-0.0462	0.0165	0.9585
23.9835	46.6467	680.8662	54.8376	-252.2121	-26.1161	608.2026	-1.4017	91.6087	-2.618	30.8277	3.5462	95.8883	-0.0592	0.0182	-0.0073	-0.0462	0.0165	0.9585
24.0056	44.3525	650.3332	55.4942	-240.7083	-27.6269	580.7733	-5.005	144.399	-5.9142	48.6291	8.5237	150.9684	-0.0592	0.0182	-0.0073	-0.0462	0.0165	0.9585
24.0276	40.4906	607.8591	54.7229	-224.7916	-28.5609	543.4073	-10.0658	205.956	-10.5212	69.3805	15.4626	215.185	-0.0592	0.0182	-0.0073	-0.0462	0.0165	0.9585
24.0497	35.4769	554.5676	52.2309	-204.9014	-28.5046	496.9535	-15.9659	270.6368	-16.2751	91.1751	23.9492	282.5816	-0.0592	0.0182	-0.0073	-0.0462	0.0165	0.9585
24.0718	30.0472	494.155	48.103	-182.4059	-27.2578	444.4842	-21.8273	333.5641	-22.524	112.388	32.967	347.9402	-0.0592	0.0182	-0.0073	-0.0462	0.0165	0.9585
24.0939	25.0198	431.7136	42.8092	-159.1712	-24.9216	390.2936	-26.9397	392.3758	-28.4321	132.2564	41.3749	408.6942	-0.0592	0.0182	-0.0073	-0.0462	0.0165	0.9585
24.1159	20.9882	371.8669	36.9727	-136.891	-21.8012	338.2872	-30.8341	445.8815	-33.3283	150.395	48.289	463.555	-0.0592	0.0182	-0.0073	-0.0462	0.0165	0.9585
24.138	18.2054	317.6586	31.1434	-116.6911	-18.2522	291.0181	-33.2306	493.1824	-36.9043	166.4749	53.2664	511.5794	-0.0592	0.0182	-0.0073	-0.0462	0.0165	0.9585
24.1601	16.6314	270.3745	25.7179	-99.0649	-14.6015	249.5292	-34.05	533.6697	-39.254	180.224	56.3489	552.1695	-0.0592	0.0182	-0.0073	-0.0462	0.0165	0.9585
24.1821	16.0117	229.8496	20.9238	-83.9786	-11.1141	213.6285	-33.4567	567.3976	-40.7022	191.5758	57.9104	585.4614	-0.0592	0.0182	-0.0073	-0.0462	0.0165	0.9585
24.2042	15.9494	194.9909	16.8431	-71.0517	-7.9908	182.3638	-31.7765	595.3099	-41.6091	200.7771	58.4344	612.5441	-0.0592	0.0182	-0.0073	-0.0462	0.0165	0.9585
24.2263	15.9951	164.3318	13.4354	-59.7527	-5.3504	154.4914	-29.3881	619.0746	-42.2987	208.3474	58.3989	635.2679	-0.0592	0.0182	-0.0073	-0.0462	0.0165	0.9585
24.2484	15.7549	136.5073	10.59	-49.5739	-3.236	128.8785	-26.676	640.5296	-43.0646	214.8954	58.2603	655.6677	-0.0592	0.0182	-0.0073	-0.0462	0.0165	0.9585
24.2704	14.9498	110.6097	8.1922	-40.1617	-1.6492	104.8066	-23.9729	661.0281	-44.1173	220.9011	58.3775	675.273	-0.0592	0.0182	-0.0073	-0.0462	0.0165	0.9585
24.2925	13.4563	86.3908	6.176	-31.3945	-0.58054	82.147	-21.4799	680.9778	-45.4878	226.5702	58.8819	694.5947	-0.0592	0.0182	-0.0073	-0.0462	0.0165	0.9585
24.3146	11.3408	64.238	4.5183	-23.3825	0.0063622	61.3256	-19.2397	699.7552	-46.9762	231.8046	59.6099	713.0173	-0.0592	0.0182	-0.0073	-0.0462	0.0165	0.9585
24.3366	8.8471	44.8714	3.2002	-16.3691	0.20581	43.0444	-17.1828	716.0053	-48.2392	236.2801	60.2012	729.118	-0.0592	0.0182	-0.0073	-0.0462	0.0165	0.9585
24.3587	6.2902	28.9067	2.1753	-10.5763	0.1618	27.8963	-15.2144	728.1622	-48.9697	239.5853	60.3058	741.222	-0.0592	0.0182	-0.0073	-0.0462	0.0165	0.9585
24.3808	3.9551	16.5722	1.3844	-6.0924	0.020491	16.1253	-13.2748	735.1116	-49.0273	241.4139	59.738	748.0969	-0.0592	0.0182	-0.0073	-0.0462	0.0165	0.9585
24.4029	2.0341	7.7141	0.78143	-2.8666	-0.11761	7.623	-11.3773	736.7224	-48.4752	241.733	58.5305	749.514	-0.0592	0.0182	-0.0073	-0.0462	0.0165	0.9585
24.4249	0.6091	1.91	0.34486	-0.7488	-0.21467	2.0159	-9.6188	733.9974	-47.5172	240.839	56.8856	746.4098	-0.0592	0.0182	-0.0073	-0.0462	0.0165	0.9585
24.447	-0.34714	-1.4409	0.063087	0.47697	-0.27818	-1.2502	-8.1591	728.9573	-46.4045	239.3351	55.0808	740.7618	-0.0592	0.0182	-0.0073	-0.0462	0.0165	0.9585
24.4691	-0.91694	-3.0011	-0.088012	1.0487	-0.32085	-2.7924	-7.1807	724.304	-45.3738	238.0391	53.3973	735.2422	-0.0592	0.0182	-0.0073	-0.0462	0.0165	0.9585
24.4911	-1.1973	-3.3786	-0.14273	1.1852	-0.3485	-3.184	-6.812	722.9487	-44.59	237.8516	52.042	732.7278	-0.0592	0.0182	-0.0073	-0.0462	0.0165	0.9585
